<?xml version="1.0" standalone="no"?><!DOCTYPE svg PUBLIC "-//W3C//DTD SVG 1.1//EN" "http://www.w3.org/Graphics/SVG/1.1/DTD/svg11.dtd"><svg t="1513046799916" class="icon" style="" viewBox="0 0 1440 1024" version="1.1" xmlns="http://www.w3.org/2000/svg" p-id="996" xmlns:xlink="http://www.w3.org/1999/xlink" width="281.25" height="200"><defs><style type="text/css"></style></defs><path d="M914.8032 512l203.584-203.584a31.84 31.84 0 0 0 0.064-45.312 31.968 31.968 0 0 0-45.312 0.064l-203.616 203.584-203.584-203.584a31.84 31.84 0 0 0-45.312-0.064 31.968 31.968 0 0 0 0.064 45.312L824.2752 512l-203.584 203.584a31.84 31.84 0 0 0-0.064 45.312 31.968 31.968 0 0 0 45.312-0.064l203.584-203.584 203.616 203.584a31.84 31.84 0 0 0 45.312 0.064 31.968 31.968 0 0 0-0.064-45.312L914.8032 512zM18.9312 557.44a64 64 0 0 1 0-90.88L462.8672 22.656C475.3792 10.144 500.1152 0 517.4912 0h703.776a192.16 192.16 0 0 1 192.256 192v640c0 106.048-86.048 192-192.256 192H517.4912c-17.664 0-42.176-10.24-54.624-22.656L18.9632 557.44z" fill="#333333" p-id="997"></path></svg>