<?xml version="1.0" standalone="no"?><!DOCTYPE svg PUBLIC "-//W3C//DTD SVG 1.1//EN" "http://www.w3.org/Graphics/SVG/1.1/DTD/svg11.dtd"><svg t="1513049512739" class="icon" style="" viewBox="0 0 1024 1024" version="1.1" xmlns="http://www.w3.org/2000/svg" p-id="5843" xmlns:xlink="http://www.w3.org/1999/xlink" width="32" height="32"><defs><style type="text/css"></style></defs><path d="M874.950441 847.717107 315.506596 847.717107 4.515559 515.006233 315.506596 182.293101l559.446103 0c79.28192 0 141.282798 63.834194 141.282798 142.59231l0 380.243902C1016.235497 783.869366 954.234619 847.717107 874.950441 847.717107L874.950441 847.717107zM961.976545 367.828373c0-71.262288-33.412876-129.014025-105.259929-129.014025l-511.545057 0L81.395202 515.006233l261.518577 276.189627 513.802837 0c71.851569 0 105.259929-32.929711 105.259929-104.178453L961.976545 367.828373 961.976545 367.828373zM734.943289 686.107522l-123.859515-123.861773-128.379589 128.377331-44.981737-44.981737 128.377331-123.861773-132.89289-132.895148 40.466179-40.463921 132.895148 128.377331 135.148412-132.89289 44.983995 42.7217-135.152927 132.895148 123.864031 126.119552L734.943289 686.107522 734.943289 686.107522z" p-id="5844"></path></svg>