<?xml version="1.0" standalone="no"?><!DOCTYPE svg PUBLIC "-//W3C//DTD SVG 1.1//EN" "http://www.w3.org/Graphics/SVG/1.1/DTD/svg11.dtd"><svg t="1513439016315" class="icon" style="" viewBox="0 0 1024 1024" version="1.1" xmlns="http://www.w3.org/2000/svg" p-id="2338" xmlns:xlink="http://www.w3.org/1999/xlink" width="48" height="48"><defs><style type="text/css"></style></defs><path d="M876.8 748.8H377.6c-70.4 0-128-57.6-128-128V128c0-70.4 57.6-128 128-128h499.2c70.4 0 128 57.6 128 128v499.2c0 70.4-57.6 121.6-128 121.6z m64-620.8c0-32-25.6-64-64-64H377.6c-32 0-64 25.6-64 64v499.2c0 32 25.6 64 64 64h499.2c32 0 64-25.6 64-64V128zM64 377.6v499.2c0 32 25.6 64 64 64h499.2c32 0 64-25.6 64-64v-64h64v64c0 70.4-57.6 128-128 128H128c-70.4 0-128-57.6-128-128V377.6c0-70.4 57.6-128 128-128h64v64H128c-38.4 0-64 25.6-64 64z" p-id="2339"></path></svg>